<svg width="24" height="24" viewBox="0 0 24 24" fill="none" xmlns="http://www.w3.org/2000/svg">
<path d="M8.99237 4.33474C9.4263 3.88842 10.1298 3.88842 10.5637 4.33474C10.9971 4.78111 10.9974 5.50481 10.5637 5.95096L5.79413 10.8572H20.8889C21.5024 10.8573 22.0002 11.3687 22.0002 11.9998C22.0001 12.6309 21.5024 13.1422 20.8889 13.1424H5.79413L10.5637 18.0486C10.9973 18.4949 10.9973 19.2186 10.5637 19.6648C10.1298 20.111 9.42628 20.1109 8.99237 19.6648L2.32538 12.8074C2.27452 12.7551 2.22795 12.6981 2.18769 12.6365C2.17672 12.6197 2.16743 12.602 2.15741 12.5847C2.12967 12.537 2.10501 12.4872 2.08417 12.4353C2.07872 12.4217 2.07347 12.4081 2.06855 12.3943C2.03685 12.3058 2.01454 12.2123 2.00507 12.115C1.99406 12.0028 1.99949 11.8891 2.02069 11.7781C2.03194 11.7192 2.04888 11.6625 2.06855 11.6072C2.07385 11.5923 2.07825 11.577 2.08417 11.5623C2.10497 11.5107 2.1298 11.4613 2.15741 11.4138C2.20345 11.3347 2.25908 11.2594 2.32538 11.1912L8.99237 4.33474Z" fill="white"/>
</svg>
