<svg width="24" height="24" viewBox="0 0 24 24" fill="none" xmlns="http://www.w3.org/2000/svg">
<path d="M14.3496 3.60156C14.7395 3.60156 15.1101 3.80232 15.3301 4.13379L16.6201 6.07324H19.3799C20.8299 6.07324 22 7.24912 22 8.70605V17.7686C22 19.2255 20.8299 20.4014 19.3799 20.4014H4.62012C3.17012 20.4014 2 19.2255 2 17.7686V8.70605C2 7.24912 3.17012 6.07324 4.62012 6.07324H7.37988L8.66992 4.13379C8.87994 3.80232 9.25047 3.60156 9.65039 3.60156H14.3496ZM10.3896 5.58105C10.1898 5.58116 9.9996 5.67118 9.88965 5.8418L8.70996 7.61035C8.53003 7.88154 8.23024 8.04284 7.90039 8.04297H4.62012C4.26012 8.04297 3.95996 8.33428 3.95996 8.70605V17.7686C3.95996 18.1303 4.25012 18.4326 4.62012 18.4326H19.3799C19.7399 18.4326 20.04 18.1403 20.04 17.7686H20.0596V8.70605C20.0596 8.34446 19.7702 8.04318 19.4004 8.04297H16.1201C15.8001 8.04297 15.4896 7.88164 15.3096 7.61035L14.1299 5.8418C14.0099 5.68123 13.8297 5.58105 13.6299 5.58105H10.3896ZM7.90039 13.9805C7.04059 10.7251 9.92023 7.83122 13.1602 8.69531C14.5801 9.07715 15.7304 10.2334 16.1104 11.6602C16.97 14.9054 14.0895 17.8094 10.8496 16.9453C9.42973 16.5634 8.28037 15.4072 7.90039 13.9805ZM14.2402 13.3984C14.6502 11.6803 13.1397 10.1522 11.4297 10.5742C10.6299 10.7752 9.96958 11.4385 9.76953 12.2422C9.35953 13.9604 10.8701 15.4884 12.5801 15.0664C13.38 14.8655 14.0401 14.2021 14.2402 13.3984Z" fill="#424752"/>
</svg>
