<svg width="24" height="24" viewBox="0 0 24 24" fill="none" xmlns="http://www.w3.org/2000/svg">
<path fill-rule="evenodd" clip-rule="evenodd" d="M14 7.5C14 8.60457 13.1046 9.5 12 9.5C10.8954 9.5 10 8.60457 10 7.5C10 6.39543 10.8954 5.5 12 5.5C13.1046 5.5 14 6.39543 14 7.5ZM15.5 7.5C15.5 9.433 13.933 11 12 11C10.067 11 8.5 9.433 8.5 7.5C8.5 5.567 10.067 4 12 4C13.933 4 15.5 5.567 15.5 7.5ZM6 18.1538C6 15.5836 8.0836 13.5 10.6538 13.5H13.3462C15.9164 13.5 18 15.5836 18 18.1538C18 18.345 17.845 18.5 17.6538 18.5H6.34615C6.15498 18.5 6 18.345 6 18.1538ZM4.5 18.1538C4.5 14.7552 7.25517 12 10.6538 12H13.3462C16.7448 12 19.5 14.7552 19.5 18.1538C19.5 19.1734 18.6734 20 17.6538 20H6.34615C5.32655 20 4.5 19.1734 4.5 18.1538Z" fill="#143A72"/>
</svg>
