<svg width="24" height="24" viewBox="0 0 24 24" fill="none" xmlns="http://www.w3.org/2000/svg">
<path d="M11.7412 2.02991C11.9109 1.98996 12.0805 1.98998 12.2402 2.02991L19.4014 3.82971H19.4219C19.8813 3.93974 20.2012 4.34998 20.2012 4.81995V11.9996C20.2012 14.5396 18.8724 16.9899 16.2656 19.2799C15.4866 19.9599 14.6077 20.6099 13.6689 21.1998C13.0197 21.5998 12.6098 21.8203 12.46 21.8903C12.3103 21.9601 12.1606 21.9996 12.001 21.9996C11.8412 21.9996 11.6808 21.9603 11.541 21.8903C11.3911 21.8202 10.972 21.5997 10.333 21.1998C9.39422 20.6099 8.51534 19.9599 7.73633 19.2799C5.12951 16.9899 3.80078 14.5396 3.80078 11.9996V4.81995C3.80079 4.34996 4.12065 3.93971 4.58008 3.82971L11.7412 2.02991ZM5.82812 5.61975V11.9899C5.82812 13.9199 6.91707 15.8501 9.06445 17.7301C9.77348 18.35 10.5526 18.9297 11.4014 19.4596C11.611 19.5896 11.8007 19.7102 11.9805 19.8102C12.1302 19.7302 12.2902 19.6299 12.46 19.5299L12.5605 19.4703C13.4095 18.9404 14.1884 18.3598 14.8975 17.7399C17.0447 15.8499 18.1338 13.9296 18.1338 11.9996V5.61975H18.1133L11.9707 4.07971L5.82812 5.61975ZM14.8779 8.99963C15.1274 8.97979 15.3672 9.07934 15.5469 9.26917L15.5664 9.2594C15.896 9.6694 15.886 10.1896 15.5664 10.4996L11.5312 14.7194C11.4114 14.8793 11.1916 14.9896 10.9619 14.9996H10.9219C10.6923 14.9995 10.4627 14.899 10.293 14.7291L8.44531 12.8092C8.11594 12.4093 8.13583 11.8897 8.44531 11.5797C8.55518 11.4297 8.77516 11.3192 9.00488 11.3092C9.25449 11.2893 9.49411 11.3998 9.67383 11.5797L10.9219 12.8395L14.3184 9.27991C14.4382 9.11991 14.6482 9.00963 14.8779 8.99963Z" fill="#143A72"/>
</svg>
