<svg width="24" height="24" viewBox="0 0 24 24" fill="none" xmlns="http://www.w3.org/2000/svg">
<rect width="24" height="24" rx="12" fill="#D7EAFB"/>
<path fill-rule="evenodd" clip-rule="evenodd" d="M11.3282 5.83395L16.6818 15.1058C17.6639 16.8067 16.2165 18.8812 14.281 18.5467L10.3189 17.8619C9.64138 17.7448 9.05088 17.3329 8.7071 16.7375L5.79892 11.7009C5.43431 11.0694 5.3883 10.3031 5.67473 9.63262L7.1914 6.08215C7.94128 4.3267 10.3736 4.18076 11.3282 5.83395ZM10.0446 15.9653C10.1592 16.1638 10.3561 16.3011 10.5819 16.3401L14.544 17.0249C15.1892 17.1364 15.6717 16.4449 15.3443 15.878L9.99064 6.60609C9.67246 6.05503 8.86168 6.10368 8.61172 6.68883L7.09505 10.2393C6.99958 10.4628 7.01491 10.7182 7.13645 10.9287L10.0446 15.9653Z" fill="#143A72"/>
<path fill-rule="evenodd" clip-rule="evenodd" d="M10.9981 17.6145L9.66055 18.3867C7.44445 19.666 4.61069 18.9067 3.33117 16.6908C2.05165 14.4748 2.8109 11.6413 5.02699 10.3619L6.36453 9.58978L10.9981 17.6145ZM4.66835 12.8294C4.13583 13.7535 4.09702 14.9285 4.66871 15.9186C5.24039 16.9087 6.27749 17.4626 7.34413 17.4635C7.86901 17.464 8.40104 17.3305 8.88829 17.0492L5.79925 11.6994C5.31201 11.9807 4.9304 12.3747 4.66835 12.8294Z" fill="#143A72"/>
<path fill-rule="evenodd" clip-rule="evenodd" d="M11.1495 8.60941L12.487 7.83727C13.9644 6.98437 15.8536 7.49057 16.7066 8.96789C17.5596 10.4452 17.0535 12.3342 15.5761 13.1871L14.2385 13.9593L11.1495 8.60941ZM14.8038 11.8496L13.2593 9.17473C13.998 8.74828 14.9426 9.00138 15.3691 9.74004C15.7956 10.4787 15.5425 11.4232 14.8038 11.8496Z" fill="#143A72"/>
<path fill-rule="evenodd" clip-rule="evenodd" d="M14.1001 1.81933C14.5121 1.92972 14.7566 2.35313 14.6462 2.76506L14.0809 4.87468C13.9705 5.2866 13.5471 5.53105 13.1351 5.42067C12.7232 5.31028 12.4787 4.88687 12.589 4.47494L13.1543 2.36532C13.2647 1.9534 13.6881 1.70895 14.1001 1.81933Z" fill="#143A72"/>
<path fill-rule="evenodd" clip-rule="evenodd" d="M21.5964 14.8031C21.486 15.215 21.0626 15.4595 20.6506 15.3491L18.5408 14.7838C18.1288 14.6734 17.8844 14.25 17.9947 13.838C18.1051 13.4261 18.5286 13.1817 18.9405 13.292L21.0503 13.8573C21.4623 13.9677 21.7068 14.3911 21.5964 14.8031Z" fill="#143A72"/>
<path fill-rule="evenodd" clip-rule="evenodd" d="M20.3027 7.02432C20.5159 7.39364 20.3894 7.86589 20.02 8.07911L18.4866 8.96433C18.1172 9.17755 17.6449 9.051 17.4317 8.68168C17.2184 8.31235 17.345 7.84011 17.7143 7.62689L19.2478 6.74167C19.6171 6.52844 20.0894 6.65499 20.3027 7.02432Z" fill="#143A72"/>
</svg>
