<svg width="24" height="24" viewBox="0 0 24 24" fill="none" xmlns="http://www.w3.org/2000/svg">
<path fill-rule="evenodd" clip-rule="evenodd" d="M21.9999 12C21.9999 17.5228 17.5228 21.9999 12 21.9999C6.47714 21.9999 2 17.5228 2 12C2 6.47714 6.47714 2 12 2C17.5228 2 21.9999 6.47714 21.9999 12ZM12 20.3333C16.6023 20.3333 20.3333 16.6023 20.3333 12C20.3333 7.39761 16.6023 3.66666 12 3.66666C7.39761 3.66666 3.66666 7.39761 3.66666 12C3.66666 16.6023 7.39761 20.3333 12 20.3333Z" fill="#3AAE72"/>
<path fill-rule="evenodd" clip-rule="evenodd" d="M17.7071 8.29289C18.0976 8.68342 18.0976 9.31658 17.7071 9.70711L11.4142 16C10.6332 16.781 9.36683 16.781 8.58579 16L6.29289 13.7071C5.90237 13.3166 5.90237 12.6834 6.29289 12.2929C6.68342 11.9024 7.31658 11.9024 7.70711 12.2929L10 14.5858L16.2929 8.29289C16.6834 7.90237 17.3166 7.90237 17.7071 8.29289Z" fill="#3AAE72"/>
</svg>
